<?xml version="1.0" standalone="no"?>
<!DOCTYPE svg PUBLIC "-//W3C//DTD SVG 20010904//EN"
 "http://www.w3.org/TR/2001/REC-SVG-20010904/DTD/svg10.dtd">
<svg version="1.0" xmlns="http://www.w3.org/2000/svg"
 width="433.000000pt" height="577.000000pt" viewBox="0 0 433.000000 577.000000"
 preserveAspectRatio="xMidYMid meet">
<metadata>
Created by potrace 1.16, written by Peter Selinger 2001-2019
</metadata>
<g transform="translate(0.000000,577.000000) scale(0.100000,-0.100000)"
fill="#000000" stroke="none">
<path d="M0 2885 l0 -2885 393 1 c215 1 381 5 367 9 -24 8 -23 8 8 9 19 1 32
-4 32 -11 0 -6 6 -3 14 8 13 17 15 17 21 2 5 -13 20 -16 76 -15 38 0 69 4 69
9 0 4 0 11 -1 14 0 4 5 11 13 15 10 7 9 9 -4 9 -10 0 -18 4 -18 10 0 5 3 9 8
9 4 -1 16 -1 27 0 19 2 19 3 -2 11 -27 11 -84 4 -94 -11 -4 -6 -6 2 -6 19 1
17 5 28 10 25 4 -2 5 -8 2 -13 -3 -4 4 -6 16 -3 16 4 17 8 7 14 -9 6 -6 9 12
10 l25 1 -25 8 c-21 7 -22 8 -5 9 19 2 19 2 1 12 -21 13 -66 -6 -66 -28 0 -7
-4 -13 -10 -13 -15 0 -12 16 5 34 20 20 19 29 -2 18 -16 -9 -69 0 -82 14 -3 4
1 5 11 1 21 -7 31 3 18 18 -8 9 -6 14 4 18 14 6 15 24 2 57 -4 9 2 20 15 28
20 13 21 12 16 -7 -5 -20 6 -30 16 -13 2 4 2 1 1 -6 -2 -7 5 -18 16 -24 20
-13 28 -58 10 -58 -5 0 -9 3 -9 8 3 20 -2 32 -16 32 -8 0 -16 -4 -16 -10 -3
-20 -4 -25 -11 -36 -5 -7 11 -11 47 -11 30 0 55 5 55 10 0 5 -6 7 -14 4 -11
-4 -13 6 -13 44 1 33 5 49 14 49 17 0 16 8 -2 27 -22 22 -10 32 33 28 20 -2
30 -1 22 2 -8 3 -18 11 -22 16 -17 27 -88 1 -71 -26 3 -6 1 -7 -5 -3 -12 7 -5
37 12 48 18 13 84 9 89 -4 2 -7 4 4 4 24 -1 20 -3 35 -7 33 -3 -2 -13 2 -23 9
-19 14 -20 61 -3 86 9 12 8 13 -4 3 -20 -15 -55 9 -46 32 4 10 2 15 -6 13 -19
-7 -17 -48 3 -48 27 0 30 -14 5 -26 -20 -9 -24 -7 -35 18 -7 15 -20 28 -29 28
-12 0 -11 4 7 16 30 21 13 40 -33 36 -19 -2 -37 2 -41 9 -6 8 1 10 23 7 19 -3
29 -1 25 6 -4 6 1 6 13 2 10 -5 27 -11 37 -13 9 -3 17 -9 17 -14 0 -5 5 -9 10
-9 20 0 -14 39 -40 46 -14 3 -20 8 -13 11 22 8 2 32 -32 39 -22 4 -32 11 -29
19 3 7 0 16 -5 20 -6 3 -9 11 -6 16 4 5 2 9 -4 9 -5 0 -13 -5 -16 -10 -10 -16
-34 7 -32 31 1 12 9 19 22 19 18 1 19 1 2 11 -19 11 -57 3 -57 -12 0 -5 5 -9
10 -9 6 0 10 -5 10 -11 0 -6 -7 -9 -15 -5 -8 3 -15 1 -15 -4 0 -19 -38 -10
-43 10 -3 13 0 20 10 20 9 0 12 6 9 18 -4 13 1 23 19 32 13 7 21 18 18 24 -3
6 6 0 22 -14 27 -24 27 -24 16 -3 -9 18 -9 23 1 23 10 0 10 2 -1 9 -9 6 -10
11 -2 15 10 6 13 0 10 -21 -1 -9 30 -26 71 -38 19 -6 35 -17 35 -25 1 -8 7
-14 14 -12 13 3 8 -12 -15 -38 -18 -21 -13 -60 8 -71 23 -12 23 -1 1 23 -15
17 -15 18 8 19 22 0 23 1 4 9 -11 5 -15 9 -9 9 7 1 15 12 18 26 4 14 11 25 16
25 6 0 10 11 10 24 0 21 -4 23 -37 19 -21 -1 -51 1 -68 6 -17 5 -22 10 -12 10
13 1 17 9 17 33 0 18 1 45 4 61 5 30 -7 35 -31 12 -8 -9 -18 -13 -22 -10 -3 4
2 13 12 20 16 11 17 17 7 35 -10 18 -9 24 1 31 8 5 21 6 29 3 8 -4 23 -6 33
-6 21 1 22 -11 2 -28 -12 -10 -18 -8 -35 11 -15 19 -19 21 -20 7 0 -26 30 -50
56 -44 12 3 26 1 29 -4 4 -6 10 -8 15 -5 5 3 15 -3 22 -12 8 -12 26 -18 51
-18 21 0 43 -3 50 -8 7 -5 -6 -7 -31 -4 -32 4 -45 1 -49 -9 -3 -8 -14 -14 -25
-14 -15 0 -18 -5 -13 -22 4 -16 3 -19 -3 -9 -11 15 -27 -2 -17 -19 6 -10 51 6
73 27 8 7 17 11 22 8 5 -3 12 0 15 5 5 7 12 5 21 -7 15 -20 19 -57 5 -49 -5 3
-12 -2 -15 -11 -5 -12 -9 -14 -18 -5 -20 20 -41 14 -35 -8 6 -22 -8 -28 -16
-7 -3 7 -6 6 -6 -5 -1 -9 4 -20 10 -23 6 -4 8 -13 5 -20 -2 -7 2 -16 10 -19
12 -5 14 -1 9 15 -6 16 -4 20 6 14 11 -6 11 -5 2 5 -12 13 -7 40 8 40 5 0 9
-9 9 -21 0 -15 5 -19 15 -15 8 3 15 0 15 -7 1 -7 8 -3 18 9 10 11 23 19 30 16
7 -2 22 4 33 14 18 16 19 16 19 -2 1 -18 1 -18 11 -2 5 10 15 18 20 18 6 0 7
-5 4 -10 -8 -12 5 -13 24 -1 11 7 9 10 -8 16 -11 3 -21 11 -21 18 0 8 3 8 12
-1 15 -15 32 -16 23 -2 -3 5 -1 10 5 10 16 0 24 -30 11 -43 -17 -17 -13 -45 7
-50 16 -4 16 -5 0 -6 -15 -1 -18 -11 -18 -55 0 -34 -5 -56 -13 -59 -7 -4 -6
-6 4 -6 17 -1 34 -45 24 -61 -3 -5 -1 -11 5 -15 5 -3 10 1 10 10 0 9 5 13 10
10 6 -3 10 -2 10 4 0 5 -5 13 -10 16 -6 4 -7 13 -1 24 6 10 6 23 1 31 -6 10
-3 21 7 32 11 12 12 18 4 18 -7 0 -9 5 -6 10 3 6 2 10 -2 10 -5 0 -8 21 -7 47
1 27 3 61 3 76 1 15 12 39 26 53 29 29 30 31 10 31 -8 0 -12 -4 -9 -9 3 -4 1
-8 -4 -8 -6 0 -12 6 -15 14 -9 24 -59 5 -64 -23 -3 -20 0 -23 22 -19 32 7 32
-5 1 -20 -20 -9 -25 -7 -33 10 -8 18 -10 19 -22 4 -12 -14 -11 -16 5 -10 17 5
17 4 3 -8 -9 -7 -17 -17 -18 -23 -1 -5 -11 -9 -23 -7 -12 2 -18 0 -14 -7 4 -6
2 -11 -3 -11 -6 0 -11 4 -11 10 0 5 -6 7 -14 4 -8 -3 -17 -1 -21 5 -3 6 1 14
9 17 19 7 21 30 3 37 -6 3 9 6 35 6 42 1 75 17 79 39 5 27 4 62 -3 62 -4 0 -8
5 -8 10 0 6 11 8 25 4 17 -4 25 -2 25 6 0 9 5 8 18 -3 12 -11 22 -13 35 -6 13
8 19 6 23 -5 3 -9 15 -16 25 -16 10 0 20 -4 20 -10 2 -16 8 -35 30 -88 6 -15
6 -21 -1 -17 -5 3 -10 2 -10 -4 0 -5 6 -12 13 -14 8 -4 5 -11 -11 -24 -22 -18
-22 -18 -2 -31 25 -15 26 -34 3 -25 -10 3 -15 3 -11 -1 3 -4 14 -9 25 -11 10
-2 18 -4 18 -5 0 -1 10 -3 23 -6 12 -2 22 -3 22 -1 0 1 -4 18 -10 36 -6 23 -6
39 1 47 7 8 7 14 -1 19 -5 3 -10 11 -10 16 0 6 4 7 10 4 7 -4 7 3 0 20 -9 24
-8 26 12 20 21 -6 22 -5 6 8 -10 8 -14 18 -10 23 4 4 -2 2 -12 -6 -17 -13 -19
-13 -14 0 3 8 -2 21 -11 27 -14 11 -13 13 7 19 l22 6 -21 19 c-15 13 -20 25
-15 42 3 14 -1 32 -10 45 -15 22 -7 31 12 12 5 -5 26 -11 47 -12 42 -3 44 -6
20 -24 -16 -11 -15 -12 9 -10 19 2 29 -2 33 -14 3 -10 12 -21 20 -24 8 -3 15
-11 15 -17 0 -8 -6 -7 -17 3 -34 28 -40 28 -35 -2 3 -22 9 -28 24 -25 12 3 18
-1 15 -8 -2 -6 2 -17 9 -24 15 -15 28 -17 19 -4 -3 5 0 13 6 17 12 7 31 -15
23 -27 -2 -4 6 -5 18 -1 17 4 20 2 15 -11 -3 -9 -2 -19 3 -22 6 -4 10 0 10 7
0 8 7 23 15 34 8 10 14 14 13 9 -2 -6 2 -11 7 -12 16 -4 14 68 -1 74 -8 3 -11
9 -8 14 3 6 0 17 -8 26 -10 13 -10 17 0 20 6 3 12 11 12 19 0 8 5 14 10 14 6
0 10 -4 10 -9 0 -5 12 -7 27 -5 39 7 42 14 7 14 -17 0 -35 5 -42 12 -9 9 -15
8 -27 -8 -14 -18 -16 -18 -25 -2 -6 9 -17 15 -25 12 -10 -4 -12 0 -8 17 4 15
3 20 -5 15 -8 -5 -12 0 -12 13 0 11 5 23 10 26 5 3 10 -1 10 -9 0 -10 9 -16
26 -16 14 0 32 -7 40 -15 12 -12 20 -13 37 -4 16 9 22 9 25 0 2 -6 8 -11 13
-11 4 0 6 7 3 15 -4 8 -15 15 -26 15 -12 0 -17 4 -12 12 4 7 3 8 -5 4 -6 -4
-8 -12 -5 -18 5 -8 1 -9 -10 -5 -10 4 -21 7 -24 7 -4 0 0 5 8 11 12 8 11 9 -5
5 -16 -5 -23 1 -32 24 -13 33 -24 37 -47 15 -8 -9 -17 -11 -21 -6 -3 5 0 13 6
16 5 4 8 13 5 21 -3 9 0 11 12 5 65 -29 88 -40 95 -48 5 -4 12 -8 15 -9 4 0
18 -5 32 -11 14 -6 32 -13 40 -16 9 -3 10 -6 3 -6 -7 -1 -13 -8 -13 -16 0 -9
6 -12 15 -9 8 4 15 1 15 -5 0 -6 -5 -11 -11 -11 -5 0 -7 -5 -4 -11 4 -6 -1
-16 -11 -23 -12 -9 -14 -15 -5 -20 6 -4 14 0 17 8 3 9 15 16 25 16 24 0 25
-30 2 -31 -12 0 -13 -2 -5 -6 7 -3 19 1 27 7 12 10 15 9 15 -8 0 -23 27 -42
49 -34 10 3 12 0 7 -13 -5 -14 -2 -16 19 -11 18 5 23 3 19 -7 -8 -23 53 -20
66 3 6 11 24 27 40 35 33 17 44 19 35 6 -3 -5 -1 -13 5 -16 6 -4 9 -1 8 7 -2
8 9 14 27 16 17 2 36 9 44 15 11 9 15 9 18 0 3 -7 21 -13 41 -13 25 0 33 -3
23 -9 -7 -5 -11 -13 -7 -19 5 -8 -15 -20 -46 -26 -14 -3 -20 -15 -12 -28 12
-19 13 -37 3 -44 -5 -3 -9 0 -9 7 0 8 -4 8 -15 -1 -8 -7 -15 -19 -15 -27 0 -9
-6 -13 -14 -10 -9 4 -13 -3 -13 -20 0 -17 2 -21 7 -12 7 10 12 10 26 -2 14
-11 16 -11 10 0 -7 10 -3 12 13 6 12 -3 21 -3 20 2 -4 25 3 43 17 43 13 0 14
3 4 15 -6 8 -10 20 -7 27 4 8 6 7 6 -4 1 -23 17 -23 30 0 6 9 11 13 11 7 0 -5
17 9 37 30 21 22 39 39 40 38 9 -8 33 -1 28 7 -4 6 -11 7 -17 4 -7 -4 -8 -2
-4 5 4 6 11 9 16 6 4 -3 10 2 14 10 3 8 1 15 -5 15 -6 0 -7 5 -4 10 4 6 23 8
43 5 20 -3 32 -3 26 0 -18 9 -3 56 20 65 11 5 15 9 8 9 -10 1 -10 4 2 16 19
19 52 9 35 -11 -9 -11 -8 -14 2 -14 12 0 12 -2 1 -9 -23 -14 -23 -76 -1 -100
11 -12 25 -21 32 -21 7 0 5 5 -4 10 -9 5 -16 24 -17 44 -1 29 2 34 18 31 11
-2 22 0 25 6 4 5 1 9 -4 9 -6 0 -11 5 -11 10 0 12 50 13 69 1 7 -5 11 -13 7
-19 -3 -5 1 -15 9 -22 8 -7 16 -10 16 -6 1 3 3 11 4 16 1 6 3 15 4 21 0 5 6 7
12 4 6 -4 8 -13 5 -21 -3 -8 -1 -14 4 -14 6 0 10 -7 10 -15 0 -8 6 -24 12 -35
10 -15 10 -22 1 -31 -9 -9 -9 -18 -2 -31 9 -16 6 -24 -10 -39 -26 -25 -26 -36
-1 -44 27 -9 25 -21 -6 -50 -19 -18 -22 -25 -11 -25 18 0 17 -14 -4 -55 -15
-30 -14 -32 9 -49 20 -15 26 -16 33 -5 5 8 3 16 -4 21 -9 5 -9 10 0 19 6 6 9
18 6 25 -3 8 0 14 7 14 7 0 10 6 7 14 -3 8 -1 17 6 20 7 2 4 5 -5 5 -10 1 -18
6 -18 12 0 5 5 7 10 4 6 -3 10 3 10 15 0 13 4 19 12 14 6 -4 8 -3 5 3 -10 16
4 74 15 67 6 -4 5 3 -1 14 -9 17 -8 23 6 30 15 9 15 12 3 27 -16 20 -15 51 5
98 7 18 13 36 13 40 0 5 4 12 8 15 4 4 4 1 -1 -7 -6 -10 -4 -12 4 -7 7 5 10
14 7 22 -3 8 -1 14 4 14 6 0 10 5 10 11 0 5 -6 7 -12 3 -7 -4 -3 4 10 18 13
15 22 37 22 57 0 18 4 30 8 27 4 -2 8 7 7 22 0 17 -6 26 -14 24 -11 -2 -10 2
2 21 9 14 12 28 7 33 -5 5 0 26 11 48 10 21 16 43 13 47 -3 5 1 9 9 9 19 0 30
-27 14 -34 -7 -2 -2 -5 10 -5 17 -1 20 -6 16 -23 -3 -13 -10 -29 -16 -35 -6
-9 -6 -13 3 -13 8 0 10 -8 7 -21 -4 -13 0 -22 11 -26 18 -7 32 -22 32 -35 0
-5 -9 1 -20 12 -28 28 -39 25 -35 -10 3 -22 1 -29 -8 -24 -9 5 -9 4 0 -6 21
-23 111 -21 96 3 -4 6 -1 7 6 3 7 -5 20 -1 29 7 23 19 52 29 52 17 0 -6 -6
-10 -14 -10 -7 0 -19 -7 -26 -15 -13 -15 -5 -20 28 -16 7 1 12 -2 11 -6 -1 -4
-1 -18 0 -30 1 -20 4 -21 31 -12 26 10 35 25 31 52 0 4 4 7 10 7 6 0 9 -9 6
-20 -3 -11 -1 -20 4 -20 22 0 7 42 -18 53 -33 14 -40 47 -11 47 16 0 18 -3 9
-14 -15 -18 11 -30 29 -13 10 9 11 9 6 0 -3 -6 -1 -15 5 -18 5 -4 8 -14 5 -22
-3 -8 -1 -11 4 -8 6 3 10 2 10 -4 0 -5 -5 -11 -11 -13 -8 -3 -6 -10 5 -20 9
-9 13 -23 10 -31 -6 -17 37 -28 79 -20 18 3 27 1 27 -7 0 -7 -8 -10 -20 -7
-11 3 -23 1 -26 -5 -3 -5 -12 -7 -20 -4 -9 3 -14 -1 -14 -14 0 -10 -5 -22 -10
-25 -16 -10 -1 -25 18 -18 15 6 15 5 4 -10 -8 -9 -10 -21 -6 -29 5 -7 9 -17 9
-23 0 -5 8 -9 18 -7 12 2 17 -4 17 -20 0 -19 -2 -20 -11 -8 -9 13 -10 13 -6 0
2 -8 14 -16 28 -18 15 -2 20 0 12 6 -10 6 -9 13 4 32 16 22 17 22 24 4 6 -16
8 -16 8 -2 1 9 -4 20 -9 23 -6 4 -8 15 -5 26 4 10 2 19 -4 19 -10 0 -8 29 4
53 4 6 -5 -1 -19 -18 -31 -36 -35 -19 -5 19 17 21 18 30 9 41 -6 8 -10 22 -8
32 2 10 -3 24 -12 31 -8 8 -10 11 -5 8 7 -3 11 16 11 50 1 30 -3 54 -7 54 -5
0 -9 -4 -9 -10 0 -5 -7 -7 -15 -4 -12 5 -13 10 -4 20 6 8 15 12 19 9 5 -3 2 7
-5 23 -20 38 -23 78 -7 75 6 -2 12 2 12 9 0 6 9 3 21 -8 11 -10 26 -19 32 -20
7 0 20 -2 30 -2 9 -1 17 -7 17 -12 0 -6 -8 -10 -17 -8 -11 2 -17 -2 -15 -11 1
-7 -2 -19 -9 -27 -12 -14 -4 -34 13 -34 7 0 6 6 -2 15 -10 12 -10 15 4 15 9 0
16 -5 16 -12 0 -6 7 -3 15 8 14 19 14 18 15 -3 0 -13 4 -23 10 -23 5 0 9 -3 9
-8 -1 -4 -1 -15 0 -26 1 -15 4 -16 16 -6 19 15 19 11 1 -31 -13 -31 -12 -34 9
-51 15 -12 21 -25 18 -38 -3 -12 0 -20 6 -20 7 0 9 -5 6 -10 -4 -6 -11 -8 -16
-5 -5 4 -9 -4 -9 -16 0 -16 5 -20 20 -16 18 5 18 3 4 -18 -20 -31 -1 -43 20
-13 l16 22 0 -22 c0 -12 -4 -22 -9 -22 -5 0 -7 -17 -6 -38 1 -20 -2 -43 -8
-50 -5 -6 -6 -12 -2 -12 4 0 13 7 19 16 17 23 49 8 35 -17 -8 -17 -6 -19 20
-19 16 0 31 6 35 15 3 10 -1 15 -12 15 -14 0 -15 2 -2 10 9 5 19 5 27 -2 7 -6
13 -6 13 -2 0 5 -11 17 -24 28 -15 11 -22 24 -19 33 3 8 0 19 -8 24 -12 7 -12
9 0 9 17 0 7 75 -13 95 -7 8 -13 24 -12 37 1 13 -3 26 -9 30 -5 4 -1 8 10 8
16 0 17 2 5 9 -8 6 -17 8 -20 6 -3 -2 -5 16 -5 40 0 40 1 42 17 29 11 -10 18
-12 23 -5 3 6 13 11 21 11 10 0 12 -5 7 -12 -13 -21 -13 -42 0 -50 9 -6 9 -8
0 -8 -7 0 -13 -7 -13 -15 0 -8 5 -15 11 -15 5 0 7 5 4 10 -3 5 1 10 9 10 21 0
20 -9 -1 -32 -10 -11 -13 -19 -8 -18 22 5 27 -1 14 -16 -11 -14 -10 -18 6 -30
10 -8 13 -14 6 -14 -8 0 -10 -7 -6 -21 4 -12 3 -19 -2 -16 -5 3 -9 -6 -10 -21
-1 -15 1 -21 4 -14 7 17 20 15 27 -4 3 -9 2 -12 -5 -8 -6 3 -5 -3 3 -15 7 -12
18 -21 25 -21 7 0 13 -5 13 -11 0 -5 5 -7 11 -4 6 4 5 -1 -2 -13 -17 -28 -6
-50 25 -47 14 2 29 -1 32 -7 10 -15 -4 -22 -20 -9 -10 8 -16 9 -21 1 -3 -5 -1
-10 5 -10 6 0 8 -5 4 -12 -5 -8 -2 -9 10 -5 10 4 24 -1 37 -14 19 -19 34 -26
62 -28 5 -1 6 -5 3 -10 -3 -4 3 -24 13 -43 10 -20 16 -45 14 -57 -2 -13 1 -20
7 -16 5 3 12 -7 16 -22 4 -15 11 -34 16 -40 6 -7 8 -19 5 -27 -3 -8 -2 -16 2
-18 13 -4 19 -93 9 -112 -5 -9 -5 -16 -1 -16 5 0 10 -32 10 -70 1 -39 5 -75 8
-80 3 -6 0 -10 -7 -10 -9 0 -10 -3 -2 -8 12 -7 11 -180 -1 -237 -4 -16 -8 -44
-9 -61 -2 -17 -6 -36 -10 -42 -5 -8 6 -12 36 -12 l43 0 -1 57 c-1 32 4 61 10
65 7 5 7 8 -2 8 -16 0 -14 91 2 102 7 5 6 8 -2 8 -9 0 -11 7 -6 23 4 12 7 59
7 104 0 54 3 80 10 76 6 -3 7 -1 3 5 -16 26 -26 102 -14 102 5 0 7 3 4 8 -2 4
-7 26 -11 50 -4 31 -3 42 7 42 10 0 10 2 0 8 -6 5 -12 19 -12 33 0 40 -3 59
-10 59 -4 0 -10 27 -14 60 -4 33 -11 62 -15 64 -4 3 -7 35 -5 71 1 36 -2 65
-7 65 -4 0 -6 -7 -3 -15 5 -11 2 -13 -10 -9 -19 7 -29 35 -20 59 5 13 4 16 -4
11 -11 -6 -17 5 -13 26 0 5 -4 7 -9 5 -6 -1 -20 13 -31 31 -13 20 -17 32 -9
32 9 0 7 8 -4 25 -9 13 -16 33 -16 44 0 11 -5 21 -11 23 -6 2 -13 16 -14 31
-2 16 -9 35 -16 43 -10 12 -10 17 0 27 10 9 18 6 36 -17 13 -17 22 -33 20 -37
-3 -4 2 -12 10 -19 7 -6 11 -18 9 -25 -3 -7 4 -23 15 -34 24 -24 27 -35 9 -26
-7 4 -5 0 5 -8 9 -8 17 -19 17 -26 0 -9 5 -9 20 -1 11 6 18 15 15 21 -4 5 -2
9 3 9 5 0 10 28 11 63 3 98 4 107 19 107 8 0 12 6 8 15 -4 11 2 15 20 15 31 0
47 -36 34 -79 -6 -22 -5 -31 3 -31 9 0 9 -2 1 -8 -20 -13 -26 -49 -9 -65 19
-20 19 -27 -1 -27 -10 0 -12 -5 -7 -12 12 -21 15 -39 14 -117 -1 -65 1 -72 17
-67 11 4 9 0 -7 -14 -17 -14 -19 -20 -8 -20 9 0 19 -9 22 -20 3 -11 10 -20 15
-20 5 0 8 -9 7 -20 -1 -11 -7 -20 -13 -20 -6 0 -14 -13 -16 -29 -2 -17 0 -29
6 -28 5 1 12 -6 14 -15 2 -11 -2 -18 -12 -18 -9 0 -16 -5 -16 -11 0 -5 -4 -8
-8 -5 -4 2 -9 -7 -10 -21 -2 -23 1 -25 28 -21 17 3 30 1 30 -2 0 -4 15 -2 34
4 19 6 32 14 30 18 -3 4 4 8 15 8 12 0 21 4 21 10 0 5 8 7 18 3 14 -5 13 -3
-3 10 -17 13 -18 19 -8 36 11 18 8 21 -37 37 -50 18 -65 34 -33 34 15 0 14 2
-3 15 -19 14 -18 14 4 15 15 0 22 6 22 20 0 11 4 20 9 20 4 0 8 -12 7 -27 0
-16 4 -30 9 -33 6 -3 10 11 11 31 1 45 9 58 34 56 23 -2 22 3 27 -67 2 -30 5
-68 7 -85 2 -16 4 -49 4 -72 2 -36 5 -41 19 -36 16 5 16 4 0 -9 -18 -14 -18
-14 0 -28 10 -8 15 -11 11 -6 -3 4 0 19 8 34 11 23 11 28 -1 35 -17 9 -8 40
11 33 7 -3 18 3 26 12 12 15 11 16 -4 3 -13 -9 -18 -10 -18 -2 0 7 -4 9 -10 6
-9 -6 -8 1 6 43 10 28 10 191 0 184 -5 -3 -7 2 -3 11 3 9 2 19 -4 23 -6 3 -8
12 -5 19 2 7 -2 25 -10 40 -8 15 -16 46 -18 69 -2 22 -9 56 -16 73 -10 28 -14
31 -26 19 -8 -8 -12 -20 -10 -28 12 -35 14 -146 3 -157 -7 -7 -7 -11 -1 -11 6
0 11 -12 12 -27 0 -16 2 -37 4 -48 2 -16 -2 -19 -19 -17 -13 2 -23 -2 -23 -8
0 -6 -4 -9 -9 -6 -4 3 -6 17 -3 31 3 17 0 25 -10 25 -8 0 -23 9 -33 20 -12 13
-14 20 -6 20 9 0 11 12 7 40 -5 34 -2 42 14 48 14 5 17 11 10 22 -8 12 -10 12
-10 1 0 -30 -27 10 -28 41 0 18 -9 38 -19 47 -17 13 -17 13 0 8 14 -5 16 -3 9
11 -5 9 -7 22 -5 29 2 6 -1 30 -7 53 -8 30 -20 47 -46 62 -18 11 -31 24 -28
29 9 15 75 -19 124 -64 25 -23 66 -58 90 -77 58 -46 96 -88 142 -158 l38 -57
0 2338 0 2337 -2165 0 -2165 0 0 -2885z m2167 1283 c-3 -9 8 -13 33 -14 41 -2
84 -20 171 -71 31 -19 76 -37 100 -41 35 -6 45 -12 47 -30 2 -16 10 -22 27
-22 15 0 45 -18 75 -45 28 -25 57 -45 66 -45 29 0 115 -53 141 -87 33 -43 25
-51 -20 -20 -32 22 -44 24 -114 20 -43 -2 -101 -3 -130 -3 -41 1 -54 -3 -65
-19 -8 -12 -18 -18 -21 -15 -3 4 -12 -5 -18 -20 -7 -14 -16 -26 -21 -26 -5 0
-6 6 -2 12 5 7 -5 2 -21 -11 -17 -12 -31 -27 -31 -32 -1 -5 -2 -18 -3 -29 0
-11 -6 -20 -12 -20 -16 0 -59 -52 -59 -70 0 -8 11 -28 24 -45 18 -23 27 -27
37 -19 8 6 22 11 32 11 15 0 16 -2 2 -17 -22 -24 -19 -26 24 -22 22 2 47 12
57 23 21 23 44 25 44 2 0 -28 31 -53 66 -53 25 0 39 7 56 30 24 33 39 37 57
16 8 -10 6 -19 -9 -39 -17 -22 -18 -26 -4 -31 29 -11 75 -6 80 9 4 9 19 15 35
15 32 0 69 31 69 57 0 16 2 15 20 -2 15 -15 22 -44 30 -119 6 -54 9 -108 6
-120 -3 -12 -8 -48 -11 -81 -10 -94 -33 -193 -52 -223 -17 -26 -17 -27 2 -12
17 13 18 13 13 -1 -4 -9 -10 -38 -14 -65 -3 -27 -15 -65 -25 -84 -22 -43 -93
-129 -124 -150 -12 -8 -41 -27 -64 -43 -38 -25 -47 -43 -42 -85 1 -7 -7 -25
-19 -41 -11 -16 -20 -34 -20 -40 0 -13 -73 -81 -106 -99 -14 -7 -29 -10 -35
-6 -6 3 -13 -3 -16 -15 -9 -34 -83 -18 -83 18 0 6 -4 11 -10 11 -5 0 -10 -4
-10 -9 0 -15 -33 -22 -42 -9 -5 9 -11 10 -15 3 -5 -6 -37 -11 -73 -10 -62 0
-90 11 -90 34 0 14 -6 14 -32 0 -16 -9 -24 -7 -44 12 -13 12 -24 18 -24 13 0
-5 -5 -2 -10 7 -8 15 -14 12 -45 -16 l-35 -33 -31 29 c-17 16 -35 29 -40 29
-17 0 -9 77 10 101 16 20 27 24 72 23 30 -1 85 -7 124 -14 126 -22 235 -3 271
49 26 36 9 43 -89 35 -79 -5 -101 -3 -151 15 -32 11 -73 32 -91 46 -19 14 -45
25 -59 25 -14 0 -26 5 -26 10 0 6 -6 10 -14 10 -22 0 -29 19 -15 36 10 12 24
15 53 11 22 -3 49 -1 60 5 14 8 40 6 98 -8 73 -16 86 -16 156 -3 42 8 111 14
152 15 65 1 110 10 141 29 4 3 14 -2 23 -10 12 -12 20 -14 36 -5 28 15 26 61
-5 94 -21 23 -31 26 -58 21 -34 -8 -57 -22 -57 -36 0 -5 7 -6 15 -3 14 6 19
-4 13 -23 -2 -4 -23 -7 -47 -5 -26 1 -51 -4 -60 -12 -28 -24 -109 -37 -186
-30 -50 5 -72 10 -69 18 3 7 -4 20 -15 30 -11 10 -18 22 -16 27 3 4 47 5 97 3
80 -4 94 -3 105 12 7 10 13 13 13 8 0 -20 44 -33 64 -19 16 12 13 15 -28 34
-25 11 -46 27 -46 35 0 8 19 28 43 44 23 16 50 39 60 50 17 19 17 19 -34 26
-44 6 -57 4 -80 -13 -49 -36 -89 -27 -188 43 -40 28 -41 28 -76 11 -33 -15
-38 -15 -60 -1 -13 9 -27 16 -31 16 -12 0 6 -104 23 -137 14 -26 14 -34 4 -47
-11 -13 -26 -15 -81 -10 -60 6 -72 4 -95 -15 -31 -24 -45 -20 -45 13 0 13 -11
36 -24 51 -13 16 -27 42 -30 59 -3 18 -21 46 -40 64 -20 19 -36 45 -40 67 -4
20 -11 33 -16 30 -5 -3 -12 4 -15 17 -8 30 -1 215 7 224 4 3 15 3 25 -1 54
-23 213 -21 293 4 l65 20 -63 -4 c-34 -2 -60 0 -57 5 7 11 -22 33 -34 25 -12
-7 -51 12 -51 24 0 5 13 4 28 -1 42 -16 82 -3 95 32 10 27 37 42 37 22 0 -5
11 -15 25 -22 14 -8 24 -19 21 -26 -3 -9 7 -14 32 -16 30 -3 33 -5 17 -12 -11
-4 -27 -11 -35 -14 -8 -3 8 -9 35 -12 28 -3 56 -1 63 4 9 7 11 4 5 -10 -6 -16
-5 -17 9 -6 49 40 65 171 28 227 -11 16 -36 41 -57 55 -31 21 -38 33 -40 60
-2 37 -38 79 -71 82 -31 2 -37 4 -83 25 -26 11 -65 24 -88 28 l-41 7 32 29
c46 41 51 44 71 52 9 3 17 16 17 27 0 12 3 19 8 16 11 -7 72 21 72 34 0 5 6
10 13 10 7 0 20 11 30 23 11 16 37 29 73 37 30 7 57 17 60 22 8 13 47 9 41 -4z
m906 -843 c-7 -33 -13 -80 -13 -105 0 -45 -28 -122 -49 -134 -6 -4 -11 -25
-11 -47 0 -45 -34 -89 -70 -89 -24 0 -24 8 -5 80 8 30 15 69 15 85 0 17 7 41
16 53 24 34 46 120 42 165 -2 33 1 42 15 45 14 3 17 -4 17 -37 0 -23 4 -41 10
-41 12 0 30 64 31 115 l2 40 6 -35 c4 -19 1 -62 -6 -95z m-431 -1074 c4 0 10
-18 14 -38 3 -21 13 -49 22 -63 9 -14 25 -42 35 -62 19 -38 112 -150 130 -157
6 -2 7 4 3 14 -5 15 -4 16 9 5 20 -16 19 -36 -1 -44 -13 -5 -14 -9 -4 -22 7
-8 19 -13 27 -10 7 3 13 1 13 -4 0 -6 -9 -10 -20 -10 -26 0 -48 -49 -28 -62
10 -6 10 -10 -2 -18 -12 -8 -10 -10 10 -11 17 -1 19 -3 8 -6 -10 -2 -18 -10
-19 -16 -2 -29 -8 -50 -19 -61 -8 -8 -9 -6 -4 9 4 11 3 17 -1 12 -5 -4 -9 -17
-10 -30 -2 -16 -8 -21 -23 -20 -14 2 -19 -3 -17 -15 1 -9 -4 -25 -13 -34 -23
-27 3 -22 31 6 17 17 31 22 51 19 32 -6 41 -19 27 -37 -6 -7 -8 -16 -4 -19 3
-4 3 -7 -1 -7 -3 0 -10 11 -15 23 -8 20 -42 36 -39 18 3 -11 -25 -61 -34 -61
-4 0 -8 -5 -8 -11 0 -5 5 -7 10 -4 17 11 11 -11 -8 -28 -10 -10 -22 -14 -27
-10 -4 5 -5 2 -1 -4 4 -8 2 -13 -5 -13 -7 0 -8 -4 -2 -12 5 -7 10 -26 11 -43
2 -23 -1 -26 -10 -17 -16 16 -28 15 -28 -3 0 -8 7 -15 15 -15 20 0 19 -17 -2
-29 -10 -6 -14 -11 -9 -11 17 0 -17 -30 -35 -30 -10 0 -24 -12 -31 -27 -9 -18
-20 -27 -32 -25 -11 2 -15 -1 -11 -7 3 -7 0 -8 -9 -5 -9 3 -16 1 -16 -5 0 -10
15 -15 23 -8 4 3 37 -30 37 -37 0 -13 -31 -5 -36 9 -4 8 -10 13 -14 10 -5 -3
-15 2 -23 10 -20 19 -27 19 -27 0 0 -8 -6 -15 -14 -15 -7 0 -16 -10 -19 -22
-6 -21 -7 -21 -25 -5 -10 9 -25 17 -33 17 -12 0 -11 -2 1 -10 12 -8 11 -10 -7
-10 -12 0 -34 -6 -49 -12 l-27 -13 24 -6 c18 -5 14 -7 -18 -8 -24 -1 -43 -5
-43 -11 0 -12 -60 -8 -60 5 0 6 -7 1 -15 -9 -8 -11 -17 -17 -21 -14 -9 9 35
50 46 43 13 -8 93 20 145 50 45 27 60 31 50 15 -4 -7 3 -8 22 -4 37 9 42 14
13 14 -13 0 -32 8 -42 17 -15 13 -19 14 -16 3 2 -7 -6 -16 -17 -18 -11 -2 -33
-15 -48 -28 -21 -17 -41 -24 -73 -24 -24 0 -44 -4 -44 -9 0 -14 -72 -24 -80
-11 -6 9 -14 8 -34 -5 -14 -10 -26 -13 -26 -7 0 13 -59 21 -67 9 -3 -6 -1 -7
4 -4 13 8 12 -24 -1 -38 -10 -12 -136 -7 -136 5 0 8 9 9 88 10 40 0 56 13 30
23 -9 3 -7 9 7 20 20 15 20 16 -5 26 -26 10 -24 12 27 14 27 2 32 -1 27 -15
-4 -15 1 -18 25 -18 36 0 47 13 24 31 -12 10 -14 10 -9 2 4 -8 2 -13 -7 -13
-8 0 -18 7 -21 16 -3 8 -10 12 -16 9 -5 -3 -10 1 -10 11 0 14 -2 15 -17 3 -11
-10 -14 -10 -9 -1 8 13 -39 36 -55 26 -5 -3 -9 -1 -9 5 0 5 6 12 13 14 6 3 1
6 -14 6 -14 1 -30 6 -36 12 -8 8 -17 8 -33 -1 -18 -10 -24 -9 -30 1 -5 6 -21
13 -37 15 -15 1 -53 12 -83 25 -30 12 -70 23 -88 24 -19 1 -38 8 -42 15 -4 7
-17 10 -28 8 -15 -4 -19 -2 -15 8 3 9 -2 14 -15 14 -15 0 -19 5 -15 20 4 16 2
19 -12 13 -13 -4 -16 -3 -11 5 4 7 2 12 -4 12 -27 0 -121 54 -116 67 3 7 1 13
-4 13 -6 0 -10 7 -10 15 0 9 -10 27 -22 41 -51 56 -58 64 -58 69 0 3 -10 16
-22 28 -39 38 -79 114 -97 182 -14 52 -14 55 5 55 10 0 14 -6 10 -15 -7 -20
16 -19 54 0 17 9 30 13 30 9 0 -4 6 -2 13 3 6 6 32 22 57 35 25 14 62 35 83
47 21 11 49 21 62 21 13 0 35 5 48 11 19 9 30 8 49 -5 14 -9 27 -13 30 -10 3
3 39 -26 80 -65 77 -75 106 -86 131 -50 19 27 68 28 102 1 29 -23 125 -47 154
-37 10 3 35 8 55 10 21 3 49 11 64 19 26 14 82 69 82 82 0 10 108 142 169 206
52 55 55 57 100 54 25 -2 49 -4 53 -5z"/>
<path d="M3263 932 c-24 -4 -30 -16 -13 -27 6 -3 10 -13 10 -21 0 -9 -5 -12
-12 -8 -7 4 -8 3 -4 -5 4 -6 12 -8 18 -5 8 5 9 -3 5 -23 -5 -24 0 -36 24 -63
26 -28 29 -37 20 -57 -8 -16 -7 -23 0 -23 7 0 9 -11 7 -25 -3 -15 -1 -22 5
-18 6 4 8 0 5 -8 -3 -8 -2 -23 2 -34 4 -11 4 -25 -1 -31 -5 -6 -5 -25 1 -42 6
-22 5 -32 -2 -32 -6 0 -2 -8 9 -17 11 -11 19 -29 18 -43 -1 -14 1 -32 6 -40
14 -27 22 -55 20 -67 -1 -7 3 -13 8 -13 13 0 3 143 -15 205 -4 16 -3 17 5 5 9
-13 11 -13 11 3 0 9 -6 17 -14 17 -9 0 -12 8 -9 24 3 14 -2 35 -11 48 -18 25
-21 42 -6 33 6 -3 10 -1 10 4 0 6 -4 11 -9 11 -6 0 -8 10 -6 22 3 12 1 26 -3
32 -4 6 -8 29 -7 51 0 41 -4 50 -40 86 -11 11 -15 20 -10 19 24 -5 33 1 28 20
-3 11 -9 18 -13 15 -5 -3 -10 -2 -12 2 -1 5 -13 7 -25 5z"/>
<path d="M4010 256 c0 -9 7 -12 20 -9 24 6 25 -4 5 -48 -14 -30 -15 -31 -10
-6 3 16 1 27 -5 27 -6 0 -15 -12 -21 -27 -10 -26 -12 -27 -19 -8 -8 19 -9 19
-9 -3 -1 -19 3 -22 19 -17 14 5 20 2 20 -9 0 -14 -12 -20 -32 -17 -5 0 -8 -4
-8 -10 0 -6 6 -9 14 -6 10 4 15 -4 18 -24 3 -20 0 -29 -9 -29 -7 0 -13 5 -13
11 0 5 -4 8 -9 5 -8 -5 -9 -49 -2 -77 0 -4 29 -7 64 -8 60 -1 62 0 63 24 1 14
-2 23 -6 20 -4 -3 -11 3 -15 12 -3 10 -1 19 4 21 15 5 14 32 -1 32 -9 0 -9 3
-3 8 6 4 10 17 9 30 -1 12 2 22 6 22 13 0 -2 41 -17 47 -10 4 -12 14 -9 29 6
21 3 24 -24 24 -19 0 -30 -5 -30 -14z"/>
</g>
</svg>
